<svg width="30" height="31" viewBox="0 0 30 31" fill="none" xmlns="http://www.w3.org/2000/svg">
<path fill-rule="evenodd" clip-rule="evenodd" d="M2.26758 12.5704H2.94956C2.94491 12.6062 2.94181 12.6424 2.94181 12.6794V26.0039H2.47829C2.01167 26.0039 1.63322 26.3836 1.63322 26.8518C1.63322 27.32 2.01167 27.6998 2.47829 27.6998H3.78688H6.99435H10.202H13.4096H16.617H19.8246H23.0322H26.2397H27.5483C28.0149 27.6998 28.3934 27.32 28.3934 26.8518C28.3934 26.3836 28.0149 26.0039 27.5483 26.0039H27.0848V12.6794C27.0848 12.6424 27.0817 12.6062 27.077 12.5704H27.759C28.3958 12.5704 28.9577 12.1627 29.1572 11.5559C29.3566 10.949 29.1466 10.2859 28.6346 9.90575L15.516 0.166305C15.2176 -0.0554349 14.8093 -0.0554349 14.5108 0.166305L1.39181 9.90575C0.879979 10.2858 0.669979 10.949 0.869415 11.5559C1.06885 12.1627 1.63068 12.5704 2.26758 12.5704ZM15.7721 26.0039H14.2548V12.6794C14.2548 12.6424 14.2517 12.6062 14.247 12.5704H15.78C15.7753 12.6062 15.7722 12.6424 15.7722 12.6794V26.0039H15.7721ZM7.83927 26.0039H9.35688V12.6794C9.35688 12.6424 9.35998 12.6062 9.36463 12.5704H7.83153C7.83618 12.6062 7.83927 12.6424 7.83927 12.6794V26.0039ZM4.63181 26.0039V13.5274H6.14913V26.0039H4.63181ZM11.047 13.5274V26.0039H12.5645V13.5274H11.047ZM17.4621 26.0039V13.5274H18.9796V26.0039H17.4621ZM23.8774 13.5274V26.0039H25.3948V13.5274H23.8774ZM22.1873 12.6794V26.0039H20.6698V12.6794C20.6698 12.6424 20.6667 12.6062 20.6621 12.5704H22.1952C22.1905 12.6062 22.1873 12.6424 22.1873 12.6794ZM27.0981 10.8744L15.0134 1.90277L2.92857 10.8744H27.0981Z" fill="white"/>
<path d="M29.1377 28.7178H0.891945C0.425326 28.7178 0.046875 29.0975 0.046875 29.5657C0.046875 30.0339 0.425326 30.4137 0.891945 30.4137H29.1377C29.6043 30.4137 29.9828 30.0339 29.9828 29.5657C29.9828 29.0975 29.6045 28.7178 29.1377 28.7178Z" fill="white"/>
</svg>
