<svg width="30" height="31" viewBox="0 0 30 31" fill="none" xmlns="http://www.w3.org/2000/svg">
<path fill-rule="evenodd" clip-rule="evenodd" d="M6.01673 0H19.4513C23.3905 0 27.9764 2.90489 26.6114 9.29864C25.4035 14.9468 20.8981 18.2686 15.5107 18.2686H9.87854L7.94764 27.3225H0.0644531L6.01673 0ZM11.0046 13.037H13.5737L14.8398 7.43011H18.7006C18.8303 7.43011 18.9462 7.45514 19.0623 7.48021L19.0623 7.48021C19.1116 7.49085 19.1609 7.50149 19.2113 7.51023C18.8816 6.35182 17.8787 5.56295 16.5542 5.56295H12.6931L11.0046 13.037ZM19.2092 9.29932C18.7391 11.3277 16.8116 12.9464 14.849 13.0224L15.7732 8.92364H19.2733C19.2664 8.96462 19.2608 9.00513 19.2553 9.04564C19.2438 9.12881 19.2324 9.21198 19.2092 9.29932ZM28.3872 5.94818C28.9998 7.32239 29.2095 9.04875 28.7574 11.1661C27.5499 16.8136 23.0445 20.1355 17.6574 20.1355H12.0252L10.0947 29.1883H3.4715L3.14423 30.6818H11.0281L12.9587 21.629H18.5905C23.9768 21.629 28.483 18.3072 29.6908 12.6597C30.3263 9.68284 29.6649 7.47205 28.3872 5.94818Z" fill="white"/>
</svg>
