<svg width="22" height="39" viewBox="0 0 22 39" fill="none" xmlns="http://www.w3.org/2000/svg">
<path fill-rule="evenodd" clip-rule="evenodd" d="M0.6842 38.9681H21.2855C21.5998 38.9681 21.8545 38.7113 21.8546 38.3945V2.69444C21.8546 1.20862 20.6555 0 19.1816 0H2.78823C1.31423 0 0.115234 1.20862 0.115234 2.69444V38.3945C0.115234 38.7113 0.369941 38.9681 0.6842 38.9681ZM20.7165 37.821H1.25317V26.7964H20.7165V37.821ZM1.25317 25.6496H20.7165V2.69444C20.7165 1.84122 20.0279 1.14706 19.1815 1.14706H2.78823C1.9418 1.14706 1.25317 1.84122 1.25317 2.69444V25.6496ZM9.10792 24.3213H9.40492C9.71918 24.3213 9.97389 24.0645 9.97389 23.7478C9.97389 23.431 9.71918 23.1742 9.40492 23.1742H9.10792C8.79366 23.1742 8.53896 23.431 8.53896 23.7478C8.53896 24.0645 8.79366 24.3213 9.10792 24.3213ZM6.96653 24.3213H6.66953C6.35527 24.3213 6.10056 24.0645 6.10056 23.7478C6.10056 23.431 6.35527 23.1742 6.66953 23.1742H6.96653C7.28079 23.1742 7.53549 23.431 7.53549 23.7478C7.53549 24.0645 7.28079 24.3213 6.96653 24.3213ZM4.23132 24.3213H4.52832C4.84258 24.3213 5.09729 24.0645 5.09729 23.7478C5.09729 23.431 4.84258 23.1742 4.52832 23.1742H4.23132C3.91706 23.1742 3.66235 23.431 3.66235 23.7478C3.66235 24.0645 3.91706 24.3213 4.23132 24.3213ZM17.7386 23.5187H13.3361C13.0218 23.5187 12.7671 23.262 12.7671 22.9452V20.086C12.7671 19.7692 13.0218 19.5124 13.3361 19.5124H17.7386C18.0528 19.5124 18.3075 19.7692 18.3075 20.086V22.9452C18.3075 23.2618 18.0528 23.5187 17.7386 23.5187ZM17.1696 22.3717H13.9051V20.6595H17.1696V22.3717ZM9.40492 22.4904H9.10792C8.79366 22.4904 8.53896 22.2336 8.53896 21.9169C8.53896 21.6001 8.79366 21.3433 9.10792 21.3433H9.40492C9.71918 21.3433 9.97389 21.6001 9.97389 21.9169C9.97389 22.2336 9.71918 22.4904 9.40492 22.4904ZM6.66953 22.4904H6.96653C7.28079 22.4904 7.53549 22.2336 7.53549 21.9169C7.53549 21.6001 7.28079 21.3433 6.96653 21.3433H6.66953C6.35527 21.3433 6.10056 21.6001 6.10056 21.9169C6.10056 22.2336 6.35527 22.4904 6.66953 22.4904ZM4.52832 22.4904H4.23132C3.91706 22.4904 3.66235 22.2336 3.66235 21.9169C3.66235 21.6001 3.91706 21.3433 4.23132 21.3433H4.52832C4.84258 21.3433 5.09729 21.6001 5.09729 21.9169C5.09729 22.2336 4.84258 22.4904 4.52832 22.4904ZM9.10792 20.6595H9.40492C9.71918 20.6595 9.97389 20.4027 9.97389 20.086C9.97389 19.7692 9.71918 19.5124 9.40492 19.5124H9.10792C8.79366 19.5124 8.53896 19.7692 8.53896 20.086C8.53896 20.4027 8.79366 20.6595 9.10792 20.6595ZM6.96653 20.6595H6.66953C6.35527 20.6595 6.10056 20.4027 6.10056 20.086C6.10056 19.7692 6.35527 19.5124 6.66953 19.5124H6.96653C7.28079 19.5124 7.53549 19.7692 7.53549 20.086C7.53549 20.4027 7.28079 20.6595 6.96653 20.6595ZM4.23132 20.6595H4.52832C4.84258 20.6595 5.09729 20.4027 5.09729 20.086C5.09729 19.7692 4.84258 19.5124 4.52832 19.5124H4.23132C3.91706 19.5124 3.66235 19.7692 3.66235 20.086C3.66235 20.4027 3.91706 20.6595 4.23132 20.6595ZM17.7386 18.0511H4.23132C3.91706 18.0511 3.66235 17.7943 3.66235 17.4775V4.43587C3.66235 4.11909 3.91706 3.86234 4.23132 3.86234H17.7386C18.0528 3.86234 18.3075 4.11909 18.3075 4.43587V17.4775C18.3075 17.7943 18.0528 18.0511 17.7386 18.0511ZM17.1696 16.904H4.80029V5.0094H17.1696V16.904Z" fill="white"/>
</svg>
