<svg width="110" height="25" viewBox="0 0 110 25" fill="none" xmlns="http://www.w3.org/2000/svg">
<circle opacity="0.8" cx="12.5" cy="12.5" r="12.5" fill="white"/>
<circle opacity="0.7" cx="28.5" cy="12.5" r="12.5" fill="white"/>
<path fill-rule="evenodd" clip-rule="evenodd" d="M96.146 14.404C96.118 17.367 93.462 19.279 89.375 19.279C87.632 19.261 85.953 18.918 85.043 18.519L85.59 15.326L86.091 15.554C87.368 16.086 88.195 16.301 89.752 16.301C90.869 16.301 92.065 15.863 92.077 14.908C92.084 14.283 91.576 13.838 90.061 13.138C88.585 12.455 86.631 11.311 86.656 9.26202C86.677 6.48902 89.385 4.55402 93.227 4.55402C94.733 4.55402 95.94 4.86402 96.71 5.15302L96.184 8.24502L95.833 8.08002C95.117 7.79202 94.195 7.51402 92.923 7.53402C91.401 7.53402 90.695 8.16802 90.695 8.76102C90.687 9.42902 91.519 9.86902 92.879 10.531C95.126 11.546 96.163 12.783 96.146 14.404ZM103.684 4.81402H106.688L109.834 19.072H106.227C106.227 19.072 105.869 17.433 105.753 16.935C105.454 16.935 104.202 16.9333 103.023 16.9318C101.975 16.9303 100.984 16.929 100.774 16.929C100.623 17.314 99.957 19.072 99.957 19.072H95.874L101.647 5.99802C102.057 5.06802 102.751 4.81402 103.684 4.81402ZM103.442 10.023C103.442 10.023 102.213 13.191 101.893 14.01H105.123L104.222 9.89102L103.96 8.66102C103.862 8.92343 103.731 9.26393 103.625 9.53898L103.625 9.53985L103.625 9.54035C103.514 9.82749 103.431 10.0429 103.442 10.023ZM62.05 4.67602L62 4.96202C66.691 6.09902 69.795 8.84202 71.083 12.139L69.772 5.83502C69.546 4.96602 68.891 4.70702 68.078 4.67602H62.05ZM79.581 4.81202L73.458 19.051L69.344 19.058L65.862 7.16102C68.365 8.76302 70.497 11.305 71.248 13.075L71.654 14.544L75.462 4.81502L79.581 4.81202ZM85.043 4.80002H81.153L78.722 19.066H82.61L85.043 4.80002Z" fill="white"/>
</svg>
