<svg width="80" height="22" viewBox="0 0 80 22" fill="none" xmlns="http://www.w3.org/2000/svg">
<path fill-rule="evenodd" clip-rule="evenodd" d="M75.7936 19.3296L73.68 16.9136L71.2368 19.1664L67.112 14.576L68.2592 13.5664L65.3712 10.3328L66.5248 9.32162L63.5936 6.09122L68.168 1.97282L69.6208 3.56322L72.0736 1.37442L73.5232 2.87682L74.4896 2.01122C74.2736 1.88642 74.0576 1.77122 73.8384 1.66722C72.4448 0.985624 70.88 0.601624 69.232 0.601624C63.4448 0.601624 58.7232 5.32162 58.7232 11.1104C58.7232 16.8976 63.4448 21.6176 69.232 21.6176C71.112 21.6176 72.8832 21.12 74.4112 20.248C74.9152 19.9632 75.3744 19.6544 75.7936 19.3296ZM17.6048 9.58722C17.9664 9.39522 18.5776 9.14402 19.2256 9.14402C20.712 9.14402 21.5152 10.1744 21.5152 12.0896C21.5152 14.3328 20.4368 15.4256 18.6976 15.4256C18.0608 15.4256 17.0784 15.2208 16.3584 14.8384V6.46882L17.6048 6.16962V9.58722ZM12.8464 9.14402C11.048 9.14402 10.1248 10.4608 10.1248 12.2848C10.1248 14.1808 10.9536 15.4272 12.9664 15.4272C13.8288 15.4272 14.5488 15.1872 15.088 14.872V13.9648C14.4288 14.3568 13.8288 14.5872 13.1824 14.5872C11.9488 14.5872 11.36 13.9536 11.36 12.512H15.2672V12.072C15.2688 10.1136 14.3456 9.14402 12.8464 9.14402ZM11.384 11.7072C11.5152 10.5104 12.08 9.94562 12.8112 9.94562C13.4592 9.94562 14.0704 10.4464 14.1296 11.7072H11.384ZM18.6976 14.5856C18.3968 14.5856 17.9792 14.5632 17.5952 14.3952V10.4736C18.0752 10.2096 18.424 10.0784 18.9008 10.0784C19.704 10.0784 20.2576 10.5712 20.2576 12.0912C20.2576 14.0352 19.5856 14.5856 18.6976 14.5856ZM44.0464 15.2816V10.9424C44.0464 9.70722 43.5056 9.14402 42.0688 9.14242C40.6896 9.14242 39.5504 9.70562 39.0112 10.0288V15.28H40.256V10.5328C40.6272 10.3168 41.24 10.1008 41.7184 10.1008C42.3344 10.1008 42.8 10.2688 42.8 11.216V15.2816H44.0464ZM29.5984 6.78082H31.0848V15.2816H29.7904V9.11682H29.6832L27.2368 15.2816H26.4704L24.024 9.26242H23.9168V15.2816H22.8384V6.78082H24.288L26.9744 13.4816H27.0352L29.5984 6.78082ZM32.4032 12.2848C32.4032 10.1872 33.5552 9.14402 35.1376 9.14402C36.72 9.14402 37.872 10.1856 37.872 12.2848C37.872 14.3344 36.7808 15.4272 35.1376 15.4272C33.496 15.4272 32.4032 14.3344 32.4032 12.2848ZM35.1376 14.5856C34.2864 14.5856 33.6624 13.9296 33.6624 12.2848C33.6624 10.6656 34.3472 9.98242 35.1376 9.98242C35.9536 9.98242 36.6128 10.6656 36.6128 12.2848C36.6128 13.9296 35.9888 14.5856 35.1376 14.5856ZM78.6976 10.392L79.8208 11.6416L78.5728 12.7664L77.448 11.5168L78.6976 10.392ZM56.2528 9.34562H54.968L53.6064 13.7616H53.5344L52 9.34722H50.6816L52.9824 15.3456C52.6944 16.2336 52.192 16.88 51.376 16.88V17.8608C52.7536 17.8608 53.4848 16.9984 54.0848 15.3424L56.2528 9.34562ZM47.8832 9.14402C46.0832 9.14402 45.1616 10.4608 45.1616 12.2848C45.1616 14.1808 45.9888 15.4272 48.0016 15.4272C48.864 15.4272 49.5808 15.1872 50.1216 14.872V13.9648C49.464 14.3568 48.864 14.5872 48.2176 14.5872C46.984 14.5872 46.3936 13.9536 46.3936 12.512H50.3024V12.072C50.3056 10.1136 49.3808 9.14402 47.8832 9.14402ZM47.848 9.94562C47.1168 9.94562 46.552 10.5104 46.4176 11.7072H49.1664C49.1072 10.4464 48.4928 9.94562 47.848 9.94562ZM76.968 14.7952L78.656 16.6704L76.7808 18.3584L75.0912 16.4832L76.968 14.7952ZM73.6784 5.15522L71.9904 3.28002L70.1152 4.96802L71.8032 6.84322L73.6784 5.15522ZM68.0272 3.92802L70.2768 6.42722L67.7776 8.67682L65.528 6.17762L68.0272 3.92802ZM71.8432 8.73762L73.5312 10.6112L75.4064 8.92322L73.7152 7.04962L71.8432 8.73762ZM75.8496 7.80642L77.096 6.68162L78.2192 7.93122L76.9744 9.05602L75.8496 7.80642ZM9.776 6.78082H8.3728L7.1488 13.1232H7.064L5.3968 6.78082H4.3296L2.7712 13.1232H2.6864L1.344 6.78082H0L1.9424 15.2816H3.2384L4.8208 9.29762H4.9056L6.536 15.2816H7.832L9.776 6.78082ZM75.1344 14.5696L73.4432 12.6976L75.3184 11.008L77.0096 12.88L75.1344 14.5696ZM75.5024 2.96802L74.2528 4.09282L75.3776 5.34242L76.6256 4.21762L75.5024 2.96802ZM69.568 12.944L67.3184 10.4448L69.8176 8.19202L72.0672 10.6912L69.568 12.944ZM69.0976 14.7648L71.3456 17.264L73.8448 15.0144L71.5952 12.5152L69.0976 14.7648Z" fill="white"/>
</svg>
