<svg width="80" height="80" viewBox="0 0 80 80" fill="none" xmlns="http://www.w3.org/2000/svg">
<rect x="1" y="1" width="78" height="78" rx="14" stroke="#C5D5E6" stroke-width="2"/>
<path d="M56.3359 32.7529L53.5406 51.7271C53.2629 53.1671 52.6253 53.7976 52.1617 54.2588C51.7123 54.7059 51.4135 55.0024 51.4135 56.4541V58.8235C51.4135 59.4729 50.8864 60 50.237 60C49.5876 60 49.0606 59.4729 49.0606 58.8235V56.4541C49.0606 54.2071 49.7147 53.3741 50.5053 52.5906C50.87 52.2282 51.0888 52.0094 51.2206 51.3341L54.0088 32.4188C54.0512 32.1294 54.1288 31.1482 53.3664 31.0424C53.1029 31.0047 52.8888 31.0471 52.7194 31.1765C52.4935 31.3435 52.3335 31.6682 52.277 32.0659L51.1076 39.8682C51.0488 40.2706 50.7829 40.6118 50.4112 40.7741C50.0394 40.9365 49.6088 40.8918 49.2723 40.6588C49.1547 40.6776 48.957 40.6047 48.7594 40.4753C48.4017 40.2471 48.197 39.8447 48.2206 39.4212L48.8912 26.9835C48.9453 26.3294 48.4912 25.7859 47.8747 25.7318C47.5759 25.7035 47.2888 25.7976 47.0606 25.9882C46.83 26.1812 46.6935 26.4494 46.6676 26.7435L45.5782 37.9953C45.517 38.6282 45.0159 39.0871 44.3288 39.0565C44.1382 39.0447 43.9453 39.0329 43.75 39.0306C43.117 39.0165 42.6088 38.5059 42.597 37.8753L42.3264 23.4776C42.3264 22.8471 41.8323 22.3529 41.2253 22.3529C40.6182 22.3529 40.1241 22.8471 40.1241 23.4541L39.8464 38.9506C39.837 39.3976 39.5782 39.8024 39.1735 39.9929C39.0276 40.0635 38.8864 40.1341 38.7523 40.2094C38.4064 40.4071 37.9853 40.4141 37.6323 40.2282C37.2794 40.0447 37.0417 39.6941 37.0017 39.2988L35.79 26.76C35.7641 26.4518 35.6253 26.1835 35.3994 25.9929C35.1712 25.8024 34.8629 25.7153 34.5876 25.7365C34.2912 25.7624 34.0253 25.9012 33.8347 26.1294C33.6464 26.3553 33.5547 26.6424 33.5806 26.9365L34.7641 43.6353C34.8017 44.1482 34.4982 44.6282 34.0182 44.8141C33.5335 45.0024 32.9876 44.8541 32.67 44.4494L29.0206 39.8541C28.5429 39.0541 27.6982 38.8306 27.0441 39.2094C26.7241 39.3953 26.4959 39.6918 26.4017 40.0471C26.3076 40.4 26.3547 40.7718 26.5429 41.0894L34.8464 55.4118C35.0347 55.7388 35.3429 55.9671 35.71 56.0565C36.237 56.1835 36.6088 56.6565 36.6088 57.2V58.8235C36.6088 59.4729 36.0817 60 35.4323 60C34.7829 60 34.2559 59.4729 34.2559 58.8235V58C33.6582 57.6776 33.1617 57.1976 32.8112 56.5929L24.5053 42.2706C24.0041 41.4094 23.87 40.4047 24.1288 39.4424C24.3829 38.4776 25.0017 37.6729 25.8676 37.1718C27.6512 36.1435 29.9335 36.7553 30.9594 38.5341L32.15 40.0259L31.2347 27.1247C31.1547 26.2259 31.437 25.3271 32.03 24.6165C32.6229 23.9106 33.4606 23.4753 34.3806 23.3929C35.3147 23.3082 36.2041 23.5976 36.9147 24.1929C37.2582 24.4824 37.5335 24.8259 37.7382 25.2071L37.7712 23.4353C37.7712 21.5482 39.3217 20 41.2253 20C43.1288 20 44.6794 21.5506 44.6794 23.4565L44.7123 25.2118C44.9194 24.8282 45.197 24.4824 45.5429 24.1906C46.2559 23.5929 47.1617 23.3059 48.0794 23.3906C49.9876 23.5576 51.4017 25.2447 51.2347 27.1506L51.11 29.4518C51.1712 29.3976 51.237 29.3459 51.3006 29.2965C51.9782 28.7882 52.7994 28.5906 53.6959 28.7129C55.5429 28.9694 56.6323 30.6329 56.3359 32.7529V32.7529Z" fill="#C5D5E6"/>
</svg>
