<svg width="80" height="80" viewBox="0 0 80 80" fill="none" xmlns="http://www.w3.org/2000/svg">
<rect x="1" y="1" width="78" height="78" rx="14" stroke="#C5D5E6" stroke-width="2"/>
<path fill-rule="evenodd" clip-rule="evenodd" d="M23.68 24C21.6706 24 20.0329 25.6235 20.0329 27.6188H20V53.3576C20 55.3529 21.6353 56.9765 23.6471 56.9765H55.3929V53.0824H60V24H23.68ZM23.6471 54.6212C22.9341 54.6212 22.3529 54.0541 22.3529 53.3553V30.8071C22.3812 30.8153 22.4129 30.8182 22.4447 30.8212L22.4447 30.8212H22.4447C22.4765 30.8241 22.5082 30.8271 22.5365 30.8353C22.8729 30.9341 23.2259 30.9953 23.6024 31.0024C23.6106 31.0024 23.6176 31.0041 23.6247 31.0059C23.6318 31.0076 23.6388 31.0094 23.6471 31.0094H53.0424V38.1506H46.3153C44.2871 38.1506 42.6376 39.7341 42.6376 41.68V44.0329C42.6376 45.9788 44.2871 47.5624 46.3153 47.5624H53.0424V54.6212H23.6471ZM44.9882 44.0329C44.9882 44.6824 45.5812 45.2094 46.3129 45.2094H57.6471V40.5035H46.3129C45.5835 40.5035 44.9882 41.0306 44.9882 41.68V44.0329ZM57.6471 50.7271H55.3929V47.5624H57.6471V50.7271ZM55.3929 28.6565V38.1506H57.6471V26.3529H23.68C22.9694 26.3529 22.3882 26.92 22.3859 27.6188C22.3859 28.3341 23.0376 28.6565 23.68 28.6565H55.3929Z" fill="#C5D5E6"/>
</svg>
