<svg width="80" height="80" viewBox="0 0 80 80" fill="none" xmlns="http://www.w3.org/2000/svg">
<rect x="1" y="1" width="78" height="78" rx="14" stroke="#C5D5E6" stroke-width="2"/>
<path fill-rule="evenodd" clip-rule="evenodd" d="M28.5493 42.6532H34.4874C35.0236 42.6532 35.4584 43.0879 35.4584 43.6241C35.4584 44.1603 35.0238 44.595 34.4876 44.595H27.5786C27.0424 44.595 26.6077 44.1603 26.6077 43.6241V28.1921L24.5184 29.2368C24.3796 29.306 24.2313 29.3393 24.0847 29.3393C23.7777 29.3393 23.4782 29.1934 23.2909 28.9282L18.6309 22.3266C18.339 21.9131 18.4138 21.3449 18.8025 21.0208L26.9527 14.2291C27.1217 14.0863 27.3399 14 27.5784 14H49.1318C49.37 14 49.588 14.0861 49.757 14.2285L57.908 21.0208C58.2968 21.3449 58.3715 21.9131 58.0797 22.3266L53.4196 28.9282C53.2323 29.1935 52.9329 29.3393 52.6258 29.3393C52.4792 29.3393 52.3308 29.3061 52.1922 29.2368L50.1027 28.1921V30.8092C50.1027 31.3454 49.668 31.7801 49.1318 31.7801C48.5957 31.7801 48.161 31.3454 48.161 30.8092V15.9417H44.4925C44.0247 18.9081 41.4509 21.1839 38.3553 21.1839C35.2596 21.1839 32.6859 18.9081 32.2182 15.9417H28.5493V42.6532ZM50.1027 26.0211L52.3142 27.1269L55.9764 21.9389L50.1027 17.0443V26.0211ZM38.3553 19.2422C36.3339 19.2422 34.6372 17.8306 34.1962 15.9417H42.5144C42.0733 17.8307 40.3766 19.2422 38.3553 19.2422ZM20.7339 21.9389L24.396 27.1269L26.6076 26.0211V17.0443L20.7339 21.9389Z" fill="#C5D5E6"/>
<path fill-rule="evenodd" clip-rule="evenodd" d="M57.1281 32.9078H37.6076C37.0714 32.9078 36.6367 33.3425 36.6367 33.8787V68.0889C36.6367 68.6251 37.0714 69.0598 37.6076 69.0598H45.0835C45.5987 69.0598 46.0243 68.6574 46.0528 68.1428L47.3677 44.4862L48.6827 68.1428C48.7113 68.6572 49.1368 69.0598 49.652 69.0598H57.1279C57.664 69.0598 58.0987 68.6251 58.0987 68.0889V33.8787C58.099 33.3424 57.6643 32.9078 57.1281 32.9078ZM56.1572 37.0224H53.0957V34.8496H56.1572V37.0224ZM43.5817 34.8496V37.0224H51.154V34.8496H43.5817ZM41.64 34.8496V37.0224H38.5785V34.8496H41.64ZM49.251 43.3774L50.5707 67.1179H56.1574V38.9641H38.5786V67.1179H44.1653L45.4849 43.3774C45.5134 42.8628 45.939 42.4603 46.4542 42.4603H48.2816C48.7968 42.4603 49.2224 42.8629 49.251 43.3774Z" fill="#C5D5E6"/>
</svg>
