<svg width="80" height="80" viewBox="0 0 80 80" fill="none" xmlns="http://www.w3.org/2000/svg">
<path d="M49.8139 28.7831C51.332 29.3215 52.5577 30.5505 53.0961 32.0686C53.2525 32.512 53.669 32.7883 54.1125 32.7883C54.2322 32.7883 54.3541 32.7678 54.4728 32.7257C55.0338 32.5272 55.3285 31.91 55.1299 31.3489C54.3671 29.1909 52.6915 27.5143 50.5357 26.7492C49.9735 26.5517 49.3575 26.8441 49.1578 27.4052C48.9594 27.9674 49.2518 28.5836 49.8139 28.7831Z" fill="#C5D5E6"/>
<path d="M39.9399 58.5542C40.1018 58.6416 40.2787 58.6858 40.4567 58.6858C40.6347 58.6858 40.8127 58.6416 40.9735 58.5542C53.2533 51.8559 59.8782 40.8363 59.8782 33.8694C59.8782 27.3243 54.5546 22.0006 48.0095 22.0006C43.413 22.0006 39.1877 24.6927 37.2467 28.8607C36.9942 29.4013 37.2284 30.0434 37.7679 30.2947C38.3084 30.5472 38.9505 30.3121 39.2019 29.7725C40.7912 26.3619 44.2482 24.1586 48.0096 24.1586C53.3645 24.1586 57.7203 28.5144 57.7203 33.8694C57.7203 40.204 51.2756 50.2698 40.4568 56.3724C29.6379 50.2698 23.1931 40.2041 23.1931 33.8694C23.1931 28.5144 27.5501 24.1586 32.9039 24.1586C34.2558 24.1586 35.5636 24.4305 36.7925 24.9678C37.3385 25.2063 37.974 24.9581 38.2135 24.4121C38.4519 23.8662 38.2027 23.2307 37.6567 22.9912C36.1549 22.3341 34.5558 22.0006 32.9039 22.0006C26.3599 22.0006 21.0352 27.3242 21.0352 33.8694C21.0352 40.8363 27.6612 51.8559 39.9399 58.5542Z" fill="#C5D5E6"/>
<rect x="1" y="1" width="78" height="78" rx="14" stroke="#C5D5E6" stroke-width="2"/>
</svg>
