<svg width="60" height="60" viewBox="0 0 60 60" fill="none" xmlns="http://www.w3.org/2000/svg">
<g opacity="0.5">
<path fill-rule="evenodd" clip-rule="evenodd" d="M23.563 14.174L45.563 29.174C45.836 29.36 46 29.669 46 30C46 30.331 45.836 30.64 45.563 30.826L23.563 45.826C23.394 45.941 23.197 46 23 46C22.84 46 22.679 45.962 22.533 45.884C22.205 45.711 22 45.371 22 45V15C22 14.629 22.205 14.289 22.532 14.116C22.86 13.943 23.256 13.966 23.563 14.174ZM43.225 30L24 16.893V43.107L43.225 30Z" fill="white"/>
<path fill-rule="evenodd" clip-rule="evenodd" d="M0 30C0 13.458 13.458 0 30 0C46.542 0 60 13.458 60 30C60 46.542 46.542 60 30 60C13.458 60 0 46.542 0 30ZM2 30C2 45.439 14.561 58 30 58C45.439 58 58 45.439 58 30C58 14.561 45.439 2 30 2C14.561 2 2 14.561 2 30Z" fill="white"/>
</g>
</svg>
